<?xml version="1.0" encoding="UTF-8" standalone="no"?>
<!DOCTYPE svg PUBLIC "-//W3C//DTD SVG 1.1//EN"
 "http://www.w3.org/Graphics/SVG/1.1/DTD/svg11.dtd">
<!-- Generated by graphviz version 2.26.3 (20100126.1600)
 -->
<!-- Title: G Pages: 1 -->
<svg width="858pt" height="712pt"
 viewBox="0.00 0.00 858.00 712.00" xmlns="http://www.w3.org/2000/svg" xmlns:xlink="http://www.w3.org/1999/xlink">
<g id="graph1" class="graph" transform="scale(1 1) rotate(0) translate(4 708)">
<title>G</title>
<polygon fill="white" stroke="white" points="-4,5 -4,-708 855,-708 855,5 -4,5"/>
<g id="graph2" class="cluster"><title>cluster_Rhumsaa</title>
<polyline fill="none" stroke="gray" points="586,-8 830,-8 "/>
<path fill="none" stroke="gray" d="M830,-8C836,-8 842,-14 842,-20"/>
<polyline fill="none" stroke="gray" points="842,-20 842,-684 "/>
<path fill="none" stroke="gray" d="M842,-684C842,-690 836,-696 830,-696"/>
<polyline fill="none" stroke="gray" points="830,-696 586,-696 "/>
<path fill="none" stroke="gray" d="M586,-696C580,-696 574,-690 574,-684"/>
<polyline fill="none" stroke="gray" points="574,-684 574,-20 "/>
<path fill="none" stroke="gray" d="M574,-20C574,-14 580,-8 586,-8"/>
<text text-anchor="middle" x="708" y="-682.1" font-family="Times Roman,serif" font-size="11.00" fill="gray">Rhumsaa</text>
</g>
<g id="graph3" class="cluster"><title>cluster_Rhumsaa\Uuid</title>
<polyline fill="none" stroke="gray" points="594,-16 822,-16 "/>
<path fill="none" stroke="gray" d="M822,-16C828,-16 834,-22 834,-28"/>
<polyline fill="none" stroke="gray" points="834,-28 834,-654 "/>
<path fill="none" stroke="gray" d="M834,-654C834,-660 828,-666 822,-666"/>
<polyline fill="none" stroke="gray" points="822,-666 594,-666 "/>
<path fill="none" stroke="gray" d="M594,-666C588,-666 582,-660 582,-654"/>
<polyline fill="none" stroke="gray" points="582,-654 582,-28 "/>
<path fill="none" stroke="gray" d="M582,-28C582,-22 588,-16 594,-16"/>
<text text-anchor="middle" x="708" y="-652.1" font-family="Times Roman,serif" font-size="11.00" fill="gray">Uuid</text>
</g>
<g id="graph4" class="cluster"><title>cluster_Rhumsaa\Uuid\Console</title>
<polyline fill="none" stroke="gray" points="645,-288 771,-288 "/>
<path fill="none" stroke="gray" d="M771,-288C777,-288 783,-294 783,-300"/>
<polyline fill="none" stroke="gray" points="783,-300 783,-624 "/>
<path fill="none" stroke="gray" d="M783,-624C783,-630 777,-636 771,-636"/>
<polyline fill="none" stroke="gray" points="771,-636 645,-636 "/>
<path fill="none" stroke="gray" d="M645,-636C639,-636 633,-630 633,-624"/>
<polyline fill="none" stroke="gray" points="633,-624 633,-300 "/>
<path fill="none" stroke="gray" d="M633,-300C633,-294 639,-288 645,-288"/>
<text text-anchor="middle" x="708" y="-622.1" font-family="Times Roman,serif" font-size="11.00" fill="gray">Console</text>
</g>
<g id="graph5" class="cluster"><title>cluster_Rhumsaa\Uuid\Console\Command</title>
<polyline fill="none" stroke="gray" points="653,-478 763,-478 "/>
<path fill="none" stroke="gray" d="M763,-478C769,-478 775,-484 775,-490"/>
<polyline fill="none" stroke="gray" points="775,-490 775,-594 "/>
<path fill="none" stroke="gray" d="M775,-594C775,-600 769,-606 763,-606"/>
<polyline fill="none" stroke="gray" points="763,-606 653,-606 "/>
<path fill="none" stroke="gray" d="M653,-606C647,-606 641,-600 641,-594"/>
<polyline fill="none" stroke="gray" points="641,-594 641,-490 "/>
<path fill="none" stroke="gray" d="M641,-490C641,-484 647,-478 653,-478"/>
<text text-anchor="middle" x="708" y="-592.1" font-family="Times Roman,serif" font-size="11.00" fill="gray">Command</text>
</g>
<g id="graph6" class="cluster"><title>cluster_Rhumsaa\Uuid\Console\Util</title>
<polyline fill="none" stroke="gray" points="663,-396 753,-396 "/>
<path fill="none" stroke="gray" d="M753,-396C759,-396 765,-402 765,-408"/>
<polyline fill="none" stroke="gray" points="765,-408 765,-458 "/>
<path fill="none" stroke="gray" d="M765,-458C765,-464 759,-470 753,-470"/>
<polyline fill="none" stroke="gray" points="753,-470 663,-470 "/>
<path fill="none" stroke="gray" d="M663,-470C657,-470 651,-464 651,-458"/>
<polyline fill="none" stroke="gray" points="651,-458 651,-408 "/>
<path fill="none" stroke="gray" d="M651,-408C651,-402 657,-396 663,-396"/>
<text text-anchor="middle" x="708" y="-456.1" font-family="Times Roman,serif" font-size="11.00" fill="gray">Util</text>
</g>
<g id="graph9" class="cluster"><title>cluster_Rhumsaa\Uuid\Doctrine</title>
<polyline fill="none" stroke="gray" points="676,-70 740,-70 "/>
<path fill="none" stroke="gray" d="M740,-70C746,-70 752,-76 752,-82"/>
<polyline fill="none" stroke="gray" points="752,-82 752,-132 "/>
<path fill="none" stroke="gray" d="M752,-132C752,-138 746,-144 740,-144"/>
<polyline fill="none" stroke="gray" points="740,-144 676,-144 "/>
<path fill="none" stroke="gray" d="M676,-144C670,-144 664,-138 664,-132"/>
<polyline fill="none" stroke="gray" points="664,-132 664,-82 "/>
<path fill="none" stroke="gray" d="M664,-82C664,-76 670,-70 676,-70"/>
<text text-anchor="middle" x="708" y="-130.1" font-family="Times Roman,serif" font-size="11.00" fill="gray">Doctrine</text>
</g>
<g id="graph10" class="cluster"><title>cluster_Rhumsaa\Uuid\Exception</title>
<polyline fill="none" stroke="gray" points="602,-152 814,-152 "/>
<path fill="none" stroke="gray" d="M814,-152C820,-152 826,-158 826,-164"/>
<polyline fill="none" stroke="gray" points="826,-164 826,-268 "/>
<path fill="none" stroke="gray" d="M826,-268C826,-274 820,-280 814,-280"/>
<polyline fill="none" stroke="gray" points="814,-280 602,-280 "/>
<path fill="none" stroke="gray" d="M602,-280C596,-280 590,-274 590,-268"/>
<polyline fill="none" stroke="gray" points="590,-268 590,-164 "/>
<path fill="none" stroke="gray" d="M590,-164C590,-158 596,-152 602,-152"/>
<text text-anchor="middle" x="708" y="-266.1" font-family="Times Roman,serif" font-size="11.00" fill="gray">Exception</text>
</g>
<!-- \\Rhumsaa\\Uuid\\Console\\Command\\GenerateCommand -->
<g id="node5" class="node"><title>\\Rhumsaa\\Uuid\\Console\\Command\\GenerateCommand</title>
<a xlink:href="Console.Command.GenerateCommand.html" xlink:title="GenerateCommand" target="_parent">
<polygon fill="none" stroke="black" points="767,-576 649,-576 649,-540 767,-540 767,-576"/>
<text text-anchor="middle" x="708" y="-555.1" font-family="Courier,monospace" font-size="11.00">GenerateCommand</text>
</a>
</g>
<!-- \\Symfony\\Component\\Console\\Command\\Command -->
<g id="node33" class="node"><title>\\Symfony\\Component\\Console\\Command\\Command</title>
<ellipse fill="none" stroke="black" cx="263" cy="-531" rx="261.837" ry="18.3848"/>
<text text-anchor="middle" x="263" y="-527.4" font-family="Times Roman,serif" font-size="14.00" fill="gray">\Symfony\Component\Console\Command\Command</text>
</g>
<!-- \\Rhumsaa\\Uuid\\Console\\Command\\GenerateCommand&#45;&gt;\\Symfony\\Component\\Console\\Command\\Command -->
<g id="edge26" class="edge"><title>\\Rhumsaa\\Uuid\\Console\\Command\\GenerateCommand&#45;&gt;\\Symfony\\Component\\Console\\Command\\Command</title>
<path fill="none" stroke="black" d="M648.907,-554.415C602.639,-551.607 535.359,-547.525 469.89,-543.553"/>
<polygon fill="none" stroke="black" points="470.019,-540.054 459.825,-542.942 469.595,-547.041 470.019,-540.054"/>
</g>
<!-- \\Rhumsaa\\Uuid\\Console\\Command\\DecodeCommand -->
<g id="node6" class="node"><title>\\Rhumsaa\\Uuid\\Console\\Command\\DecodeCommand</title>
<a xlink:href="Console.Command.DecodeCommand.html" xlink:title="DecodeCommand" target="_parent">
<polygon fill="none" stroke="black" points="760,-522 656,-522 656,-486 760,-486 760,-522"/>
<text text-anchor="middle" x="708" y="-501.1" font-family="Courier,monospace" font-size="11.00">DecodeCommand</text>
</a>
</g>
<!-- \\Rhumsaa\\Uuid\\Console\\Command\\DecodeCommand&#45;&gt;\\Symfony\\Component\\Console\\Command\\Command -->
<g id="edge28" class="edge"><title>\\Rhumsaa\\Uuid\\Console\\Command\\DecodeCommand&#45;&gt;\\Symfony\\Component\\Console\\Command\\Command</title>
<path fill="none" stroke="black" d="M655.644,-507.177C609.33,-509.987 538.619,-514.277 469.902,-518.446"/>
<polygon fill="none" stroke="black" points="469.55,-514.961 459.781,-519.061 469.974,-521.948 469.55,-514.961"/>
</g>
<!-- \\Rhumsaa\\Uuid\\Console\\Util\\ErrorHandler -->
<g id="node8" class="node"><title>\\Rhumsaa\\Uuid\\Console\\Util\\ErrorHandler</title>
<a xlink:href="Console.Util.ErrorHandler.html" xlink:title="ErrorHandler" target="_parent">
<polygon fill="none" stroke="black" points="757,-440 659,-440 659,-404 757,-404 757,-440"/>
<text text-anchor="middle" x="708" y="-419.1" font-family="Courier,monospace" font-size="11.00">ErrorHandler</text>
</a>
</g>
<!-- \\Rhumsaa\\Uuid\\Console\\Exception -->
<g id="node9" class="node"><title>\\Rhumsaa\\Uuid\\Console\\Exception</title>
<a xlink:href="Console.Exception.html" xlink:title="Exception" target="_parent">
<polygon fill="none" stroke="black" points="746,-332 670,-332 670,-296 746,-296 746,-332"/>
<text text-anchor="middle" x="708" y="-311.1" font-family="Courier,monospace" font-size="11.00">Exception</text>
</a>
</g>
<!-- \\RuntimeException -->
<g id="node27" class="node"><title>\\RuntimeException</title>
<ellipse fill="none" stroke="black" cx="263" cy="-232" rx="103.238" ry="18.3848"/>
<text text-anchor="middle" x="263" y="-228.4" font-family="Times Roman,serif" font-size="14.00" fill="gray">\RuntimeException</text>
</g>
<!-- \\Rhumsaa\\Uuid\\Console\\Exception&#45;&gt;\\RuntimeException -->
<g id="edge24" class="edge"><title>\\Rhumsaa\\Uuid\\Console\\Exception&#45;&gt;\\RuntimeException</title>
<path fill="none" stroke="black" d="M669.288,-306.866C597.093,-293.563 440.52,-264.712 344.204,-246.963"/>
<polygon fill="none" stroke="black" points="344.679,-243.492 334.211,-245.122 343.411,-250.376 344.679,-243.492"/>
</g>
<!-- \\Rhumsaa\\Uuid\\Console\\Application -->
<g id="node10" class="node"><title>\\Rhumsaa\\Uuid\\Console\\Application</title>
<a xlink:href="Console.Application.html" xlink:title="Application" target="_parent">
<polygon fill="none" stroke="black" points="753,-386 663,-386 663,-350 753,-350 753,-386"/>
<text text-anchor="middle" x="708" y="-365.1" font-family="Courier,monospace" font-size="11.00">Application</text>
</a>
</g>
<!-- \\Symfony\\Component\\Console\\Application -->
<g id="node36" class="node"><title>\\Symfony\\Component\\Console\\Application</title>
<ellipse fill="none" stroke="black" cx="263" cy="-368" rx="214.96" ry="18.3848"/>
<text text-anchor="middle" x="263" y="-364.4" font-family="Times Roman,serif" font-size="14.00" fill="gray">\Symfony\Component\Console\Application</text>
</g>
<!-- \\Rhumsaa\\Uuid\\Console\\Application&#45;&gt;\\Symfony\\Component\\Console\\Application -->
<g id="edge30" class="edge"><title>\\Rhumsaa\\Uuid\\Console\\Application&#45;&gt;\\Symfony\\Component\\Console\\Application</title>
<path fill="none" stroke="black" d="M662.468,-368C620.381,-368 554.521,-368 488.327,-368"/>
<polygon fill="none" stroke="black" points="488.134,-364.5 478.134,-368 488.134,-371.5 488.134,-364.5"/>
</g>
<!-- \\Rhumsaa\\Uuid\\Doctrine\\UuidType -->
<g id="node14" class="node"><title>\\Rhumsaa\\Uuid\\Doctrine\\UuidType</title>
<a xlink:href="Doctrine.UuidType.html" xlink:title="UuidType" target="_parent">
<polygon fill="none" stroke="black" points="743,-114 673,-114 673,-78 743,-78 743,-114"/>
<text text-anchor="middle" x="708" y="-93.1" font-family="Courier,monospace" font-size="11.00">UuidType</text>
</a>
</g>
<!-- \\Doctrine\\DBAL\\Types\\Type -->
<g id="node30" class="node"><title>\\Doctrine\\DBAL\\Types\\Type</title>
<ellipse fill="none" stroke="black" cx="263" cy="-96" rx="143.043" ry="18.3848"/>
<text text-anchor="middle" x="263" y="-92.4" font-family="Times Roman,serif" font-size="14.00" fill="gray">\Doctrine\DBAL\Types\Type</text>
</g>
<!-- \\Rhumsaa\\Uuid\\Doctrine\\UuidType&#45;&gt;\\Doctrine\\DBAL\\Types\\Type -->
<g id="edge22" class="edge"><title>\\Rhumsaa\\Uuid\\Doctrine\\UuidType&#45;&gt;\\Doctrine\\DBAL\\Types\\Type</title>
<path fill="none" stroke="black" d="M672.336,-96C617.32,-96 508.522,-96 416.915,-96"/>
<polygon fill="none" stroke="black" points="416.689,-92.5001 406.688,-96 416.688,-99.5001 416.689,-92.5001"/>
</g>
<!-- \\Rhumsaa\\Uuid\\Exception\\UnsatisfiedDependencyException -->
<g id="node16" class="node"><title>\\Rhumsaa\\Uuid\\Exception\\UnsatisfiedDependencyException</title>
<a xlink:href="Exception.UnsatisfiedDependencyException.html" xlink:title="UnsatisfiedDependencyException" target="_parent">
<polygon fill="none" stroke="black" points="817,-250 599,-250 599,-214 817,-214 817,-250"/>
<text text-anchor="middle" x="708" y="-229.1" font-family="Courier,monospace" font-size="11.00">UnsatisfiedDependencyException</text>
</a>
</g>
<!-- \\Rhumsaa\\Uuid\\Exception\\UnsatisfiedDependencyException&#45;&gt;\\RuntimeException -->
<g id="edge18" class="edge"><title>\\Rhumsaa\\Uuid\\Exception\\UnsatisfiedDependencyException&#45;&gt;\\RuntimeException</title>
<path fill="none" stroke="black" d="M598.286,-232C530.845,-232 444.609,-232 376.484,-232"/>
<polygon fill="none" stroke="black" points="376.141,-228.5 366.141,-232 376.141,-235.5 376.141,-228.5"/>
</g>
<!-- \\Rhumsaa\\Uuid\\Exception\\UnsupportedOperationException -->
<g id="node17" class="node"><title>\\Rhumsaa\\Uuid\\Exception\\UnsupportedOperationException</title>
<a xlink:href="Exception.UnsupportedOperationException.html" xlink:title="UnsupportedOperationException" target="_parent">
<polygon fill="none" stroke="black" points="814,-196 602,-196 602,-160 814,-160 814,-196"/>
<text text-anchor="middle" x="708" y="-175.1" font-family="Courier,monospace" font-size="11.00">UnsupportedOperationException</text>
</a>
</g>
<!-- \\Rhumsaa\\Uuid\\Exception\\UnsupportedOperationException&#45;&gt;\\RuntimeException -->
<g id="edge20" class="edge"><title>\\Rhumsaa\\Uuid\\Exception\\UnsupportedOperationException&#45;&gt;\\RuntimeException</title>
<path fill="none" stroke="black" d="M601.977,-190.866C527.857,-199.86 429.722,-211.769 358.123,-220.457"/>
<polygon fill="none" stroke="black" points="357.263,-217.036 347.757,-221.715 358.106,-223.985 357.263,-217.036"/>
</g>
<!-- \\Rhumsaa\\Uuid\\Uuid -->
<g id="node18" class="node"><title>\\Rhumsaa\\Uuid\\Uuid</title>
<a xlink:href="Uuid.html" xlink:title="«abstract»&lt;br/&gt;Uuid" target="_parent">
<polygon fill="none" stroke="black" points="750,-60 666,-60 666,-24 750,-24 750,-60"/>
<text text-anchor="start" x="674" y="-47.4333" font-family="Courier,monospace" font-size="11.00">«abstract»</text>
<text text-anchor="start" x="694" y="-34.2333" font-family="Courier,monospace" font-size="11.00">Uuid</text>
</a>
</g>
</g>
</svg>
